# xmcd
# Copyright (C) 1995-1998 Ti Kan
#
# Track frame offsets:
#       150
#       27581
#       97535
#       202614
#
# Disc length: 3621 seconds
#
# Revision: 0
# Processed by: cddbd v1.5.2PL0 Copyright (c) Steve Scherf et al.
# Submitted via: CD-Import v1.0
#
DISCID=200e2304
DTITLE=Eugen Wälti - Electropique
DYEAR=1900
DGENRE=
TTITLE0=Electropique_4
TTITLE1=Electropique_5
TTITLE2=Electropique_6
TTITLE3=Electropique_7
EXTD=
EXTT0=
EXTT1=
EXTT2=
EXTT3=
PLAYORDER=
